<svg width="202" height="56" viewBox="0 0 202 56" fill="none" xmlns="http://www.w3.org/2000/svg"><path d="M2.58008 23.6035C2.08203 22.0508 1.73047 21.7871 0.636719 21.6309V20.8984H6.79883V21.6309C5.36328 21.8262 5.22656 22.1387 5.64648 23.6133L8.18555 32.3535L10.6562 23.6035C11.0859 22.0996 10.9492 21.8359 9.5332 21.6309V20.8984H15.4316V21.6309C14.0352 21.8262 13.9277 22.0996 14.3477 23.5645L16.877 32.3535L19.3672 23.6523C19.8164 22.1191 19.6699 21.8359 18.2148 21.6309V20.8984H22.5703V21.6309C21.418 21.7969 21.0957 22.041 20.5684 23.7109L16.9844 35.0195H14.8555L11.6133 24.2188L8.29297 35.0195H6.19336L2.58008 23.6035ZM27.5508 33.0762C27.5508 33.9062 27.7363 34.1016 28.9863 34.2676V35H23.0781V34.2676C24.4258 34.0918 24.6113 33.8867 24.6113 33.0176V22.8809C24.6113 22.0117 24.4258 21.8066 23.0781 21.6309V20.8984H28.9863V21.6406C27.7461 21.8066 27.5508 21.9922 27.5508 22.8223V27.334H33.8203V22.8223C33.8203 21.9824 33.6445 21.7969 32.3848 21.6309V20.8984H38.2832V21.6309C36.9551 21.7969 36.7598 21.9922 36.7598 22.8809V33.0176C36.7598 33.8965 36.9551 34.1016 38.2832 34.2676V35H32.3848V34.2676C33.6445 34.1016 33.8203 33.916 33.8203 33.0762V28.252H27.5508V33.0762ZM51.252 32.2949C51.8281 33.8379 52.1309 34.1113 53.2344 34.2676V35H47.0137V34.2676C48.459 34.0723 48.6641 33.7402 48.1562 32.2754L47.4531 30.2344H42.6973L42.0234 32.207C41.4961 33.75 41.7109 34.0625 43.1758 34.2676V35H38.8008V34.2676C39.9629 34.1016 40.2266 33.8379 40.832 32.1777L44.9531 20.8789H47.0918L51.252 32.2949ZM43.0195 29.3066H47.1309L45.0703 23.3496L43.0195 29.3066ZM64.084 20.8984L64.2012 24.4922H63.5078C63.0879 22.2852 62.4141 21.875 59.8555 21.7676L59.3867 21.748V32.8809C59.3867 33.8379 59.5918 34.0918 61.0371 34.2676V35H54.7969V34.2676C56.2422 34.0918 56.4473 33.8379 56.4473 32.8809V21.748L55.9785 21.7676C53.4199 21.875 52.7559 22.2852 52.3262 24.4922H51.6426L51.7598 20.8984H64.084ZM82.1895 25.0684C82.1895 27.9785 79.6211 29.5117 76.0762 29.5117H74.5234V32.8809C74.5234 33.8379 74.7285 34.0918 76.1738 34.2676V35H70.0508V34.2676C71.3984 34.0918 71.584 33.8867 71.584 33.0176V22.8809C71.584 22.0117 71.3984 21.8066 70.0508 21.6309V20.8984H76.0762C79.9043 20.8984 82.1895 22.3145 82.1895 25.0684ZM79.0645 25.2246C79.0645 23.1738 77.873 21.8848 75.3242 21.7773L74.5234 21.748V28.6621L75.3242 28.6328C77.8242 28.5254 79.0645 27.3242 79.0645 25.2246Z" fill="white"/><path d="M105.211 35H94.5859V34.2676C95.9336 34.0918 96.1191 33.8867 96.1191 33.0176V22.8809C96.1191 22.0117 95.9336 21.8066 94.5859 21.6309V20.8984H100.709V21.6309C99.2637 21.8066 99.0586 22.041 99.0586 22.9688V34.1504L100.953 34.082C103.229 34.0039 104.049 33.5254 104.654 30.7617H105.348L105.211 35ZM110.875 33.0176C110.875 33.8867 111.061 34.0918 112.398 34.2676V35H106.402V34.2676C107.75 34.0918 107.936 33.8867 107.936 33.0176V22.8809C107.936 22.0117 107.75 21.8066 106.402 21.6309V20.8984H112.398V21.6309C111.061 21.8066 110.875 22.0117 110.875 22.8809V33.0176ZM125.904 20.8984L126.021 24.4922H125.328C124.908 22.2852 124.234 21.875 121.676 21.7676L121.207 21.748V32.8809C121.207 33.8379 121.412 34.0918 122.857 34.2676V35H116.617V34.2676C118.062 34.0918 118.268 33.8379 118.268 32.8809V21.748L117.799 21.7676C115.24 21.875 114.576 22.2852 114.146 24.4922H113.463L113.58 20.8984H125.904ZM131.539 33.0176C131.539 33.8867 131.725 34.0918 133.062 34.2676V35H127.066V34.2676C128.414 34.0918 128.6 33.8867 128.6 33.0176V22.8809C128.6 22.0117 128.414 21.8066 127.066 21.6309V20.8984H133.062V21.6309C131.725 21.8066 131.539 22.0117 131.539 22.8809V33.0176ZM134.596 27.9395C134.596 23.4766 137.789 20.625 142.164 20.625C144.273 20.625 145.924 21.0742 146.764 21.6797L146.871 24.8145H146.188C145.65 22.5781 144.381 21.6602 142.438 21.6602C139.518 21.6602 137.828 24.1016 137.828 27.7051C137.828 31.3965 139.605 34.2383 142.438 34.2383C144.342 34.2383 145.67 33.4375 146.236 31.0059H146.92L146.812 34.1504C145.943 34.7656 144.049 35.2734 142.164 35.2734C137.926 35.2734 134.596 32.4512 134.596 27.9395ZM153.346 35.2734C151.49 35.2734 149.732 34.7559 148.805 34.1309L148.688 30.9863H149.381C149.879 33.2324 151.471 34.2383 153.336 34.2383C155.104 34.2383 156.207 33.3008 156.207 31.9238C156.207 30.6445 155.416 29.8438 153.668 29.2578L152.574 28.8965C150.055 28.0762 148.805 26.6992 148.805 24.7168C148.805 22.2559 150.885 20.625 154.088 20.625C155.846 20.625 157.291 21.0156 158.004 21.4551L158.121 24.4922H157.428C157.027 22.6172 155.768 21.6602 154.068 21.6602C152.35 21.6602 151.383 22.5293 151.383 23.7793C151.383 25.0293 152.262 25.7324 153.893 26.2793L154.977 26.6406C157.643 27.5098 158.785 28.8867 158.785 30.918C158.785 33.5742 156.422 35.2734 153.346 35.2734ZM170.006 35.2734C168.15 35.2734 166.393 34.7559 165.465 34.1309L165.348 30.9863H166.041C166.539 33.2324 168.131 34.2383 169.996 34.2383C171.764 34.2383 172.867 33.3008 172.867 31.9238C172.867 30.6445 172.076 29.8438 170.328 29.2578L169.234 28.8965C166.715 28.0762 165.465 26.6992 165.465 24.7168C165.465 22.2559 167.545 20.625 170.748 20.625C172.506 20.625 173.951 21.0156 174.664 21.4551L174.781 24.4922H174.088C173.688 22.6172 172.428 21.6602 170.729 21.6602C169.01 21.6602 168.043 22.5293 168.043 23.7793C168.043 25.0293 168.922 25.7324 170.553 26.2793L171.637 26.6406C174.303 27.5098 175.445 28.8867 175.445 30.918C175.445 33.5742 173.082 35.2734 170.006 35.2734ZM188.541 32.2949C189.117 33.8379 189.42 34.1113 190.523 34.2676V35H184.303V34.2676C185.748 34.0723 185.953 33.7402 185.445 32.2754L184.742 30.2344H179.986L179.312 32.207C178.785 33.75 179 34.0625 180.465 34.2676V35H176.09V34.2676C177.252 34.1016 177.516 33.8379 178.121 32.1777L182.242 20.8789H184.381L188.541 32.2949ZM180.309 29.3066H184.42L182.359 23.3496L180.309 29.3066ZM190.484 23.5156C189.596 22.0605 189.264 21.7871 188.229 21.6309V20.8984H194.391V21.6309C193.004 21.8066 192.887 22.1582 193.648 23.4668L196.148 27.8125L198.482 23.6133C199.293 22.1484 199.166 21.8066 197.73 21.6309V20.8984H201.998V21.6309C200.914 21.7969 200.602 22.0703 199.654 23.6328L196.607 28.6816V32.8809C196.607 33.8379 196.812 34.0918 198.258 34.2676V35H192.018V34.2676C193.453 34.0918 193.668 33.8379 193.668 32.8809V28.8184L190.484 23.5156Z" fill="white"/><g clip-path="url(#clip0_12238_2688)"><path d="M80 29C80 25.134 83.134 22 87 22V22C90.866 22 94 25.134 94 29V29C94 32.866 90.866 36 87 36V36C83.134 36 80 32.866 80 29V29Z" fill="#003366"/><path d="M87 23.5L88.2348 27.3004H92.2308L88.998 29.6492L90.2328 33.4496L87 31.1008L83.7672 33.4496L85.002 29.6492L81.7692 27.3004H85.7652L87 23.5Z" fill="white"/><g clip-path="url(#clip1_12238_2688)"><path fill-rule="evenodd" clip-rule="evenodd" d="M95.8224 30.7842C96.3971 27.9293 95.5776 24.8496 93.364 22.636C91.1505 20.4224 88.0707 19.603 85.2158 20.1776L97.9602 7.43323L108.567 18.0398L95.8224 30.7842Z" fill="white"/><path fill-rule="evenodd" clip-rule="evenodd" d="M94.3262 23.7699C94.0417 23.3725 93.721 22.993 93.364 22.636C93.0026 22.2746 92.6182 21.9504 92.2154 21.6633L102.203 11.6759L104.324 13.7972L94.3367 23.7847C94.3332 23.7797 94.3297 23.7748 94.3262 23.7699ZM95.6946 26.6694C96.0478 27.9919 96.0947 29.3792 95.8353 30.7189C95.8311 30.7407 95.8268 30.7625 95.8224 30.7842L108.567 18.0398L106.446 15.9185L95.6946 26.6694ZM89.3307 20.3054L100.082 9.55453L97.9602 7.43321L85.2158 20.1776C85.417 20.1371 85.6192 20.1036 85.8222 20.0769C86.9278 19.9318 88.0552 19.992 89.1428 20.2574C89.2055 20.2727 89.2682 20.2887 89.3307 20.3054Z" fill="#BD0000"/></g></g><defs><clipPath id="clip0_12238_2688"><rect width="29" height="29" fill="white" transform="translate(80 7)"/></clipPath><clipPath id="clip1_12238_2688"><rect width="18.0233" height="15" fill="white" transform="translate(85.2158 20.1776) rotate(-45)"/></clipPath></defs></svg>